<svg width="145" height="168" viewBox="0 0 145 168" fill="none" xmlns="http://www.w3.org/2000/svg">
<mask id="mask0_53_1790" style="mask-type:luminance" maskUnits="userSpaceOnUse" x="9" y="0" width="127" height="123">
<path d="M9.20831 0.797363H135.792V122.131H9.20831V0.797363Z" fill="white"/>
</mask>
<g mask="url(#mask0_53_1790)">
<path d="M125.297 66.99L123.453 64.9066C123.88 64.74 124.24 64.4743 124.531 64.1202C124.979 63.5368 135.708 49.99 135.708 37.2921C135.708 36.9743 135.312 5.1358 100.443 1.60455C99.7604 1.4483 84.2395 -1.31732 72.4583 8.69309C68.6614 5.69309 60.8333 0.786844 44.7083 1.55247C11.4218 4.77122 9.20829 36.8129 9.20829 37.1827C9.17704 42.6566 9.9687 48.0056 11.5781 53.2296C13.1875 58.4587 15.5416 63.3285 18.6406 67.8337C17.7864 68.9483 17.1406 70.1671 16.6927 71.4952C16.3645 72.4535 16.1822 73.4379 16.1458 74.4431C16.1093 75.4535 16.2187 76.4483 16.4739 77.4275C16.7291 78.4014 17.1197 79.3233 17.6458 80.1827C18.1718 81.0473 18.8125 81.8129 19.5625 82.4848C20.5416 83.5525 21.6875 84.3858 23.0052 84.9796C24.3229 85.5785 25.7083 85.8858 27.1562 85.9118H28.1302C27.9895 87.5212 28.2135 89.0733 28.802 90.5733C29.3906 92.0733 30.2812 93.3702 31.4739 94.4535C32.4531 95.5212 33.6093 96.3546 34.9322 96.9535C36.2552 97.5473 37.6406 97.8546 39.0937 97.8754H40.0416C39.9583 99.4535 40.2187 100.969 40.8229 102.427C41.4218 103.886 42.302 105.146 43.4687 106.204C44.4427 107.271 45.5885 108.105 46.9114 108.698C48.2291 109.297 49.6093 109.605 51.0572 109.631H52.0052C51.8854 111.24 52.125 112.792 52.7135 114.287C53.3072 115.787 54.1927 117.079 55.3802 118.172C56.3541 119.24 57.5052 120.068 58.8229 120.667C60.1406 121.261 61.5208 121.573 62.9687 121.594C64.4791 121.542 65.927 121.219 67.3177 120.631C68.7083 120.042 69.9479 119.219 71.0312 118.172L72.3489 116.829L73.8281 118.302C74.8802 119.349 76.0937 120.167 77.4583 120.756C78.8229 121.339 80.25 121.657 81.7343 121.704C83.1875 121.688 84.5781 121.386 85.9062 120.792C87.2343 120.204 88.3906 119.37 89.375 118.302C90.5625 117.209 91.4479 115.907 92.0312 114.407C92.6198 112.901 92.8489 111.344 92.7239 109.735H93.6718C95.151 109.74 96.5625 109.448 97.9166 108.855C99.2708 108.261 100.448 107.422 101.448 106.339C102.641 105.256 103.531 103.959 104.12 102.459C104.708 100.959 104.932 99.4066 104.792 97.7973C105.583 97.8285 106.37 97.7712 107.146 97.641C107.927 97.5056 108.682 97.2921 109.422 97.0056C110.156 96.7139 110.854 96.3546 111.516 95.9223C112.177 95.49 112.786 94.99 113.349 94.4327C113.906 93.8754 114.406 93.266 114.839 92.6046C115.276 91.9431 115.635 91.2452 115.927 90.5108C116.219 89.7764 116.432 89.0212 116.568 88.24C116.703 87.4639 116.755 86.6775 116.734 85.8858C118.323 85.9848 119.854 85.74 121.333 85.141C122.812 84.5473 124.089 83.6618 125.167 82.4848C125.906 81.8181 126.536 81.0577 127.057 80.2035C127.578 79.3493 127.964 78.4379 128.219 77.4743C128.474 76.5056 128.589 75.5212 128.557 74.5264C128.526 73.5264 128.354 72.5525 128.036 71.6046C127.453 69.8702 126.536 68.3337 125.297 66.99ZM74.4323 13.9639C84.3698 4.21393 99.3125 6.84934 99.6823 6.90143C129.964 9.88059 130.437 36.1827 130.437 37.2921C130.437 48.1202 120.5 60.6931 120.422 60.8233C120.318 60.9379 120.229 61.0577 120.156 61.1931L85.6354 22.266H85.4739C85.4479 22.115 85.3802 21.9796 85.2656 21.8702H82.1823L82.026 22.0056L62.677 41.3754C62.4218 41.6618 62.1354 41.9223 61.8229 42.1462C61.5104 42.3754 61.177 42.5681 60.8229 42.7243C60.4739 42.8806 60.1041 43.0004 59.7291 43.0837C59.3489 43.1618 58.9687 43.2035 58.5833 43.2035C58.1927 43.2035 57.8125 43.1618 57.4322 43.0837C57.0572 43.0004 56.6927 42.8806 56.3385 42.7243C55.9843 42.5681 55.651 42.3754 55.3385 42.1462C55.026 41.9223 54.7395 41.6618 54.4843 41.3754C54.1979 41.115 53.9479 40.8285 53.7239 40.516C53.5 40.2035 53.3072 39.8754 53.151 39.5212C53 39.1723 52.8802 38.8077 52.802 38.4327C52.7239 38.0525 52.6822 37.6723 52.6822 37.2921C52.6822 36.9066 52.7239 36.5264 52.802 36.1514C52.8802 35.7712 53 35.4118 53.151 35.0577C53.3072 34.7035 53.5 34.3754 53.7239 34.0629C53.9479 33.7504 54.1979 33.4639 54.4843 33.2035L74.4323 13.9639ZM31.4739 78.6671C30.2552 79.7973 28.8177 80.4223 27.1562 80.5368C25.5937 80.4691 24.302 79.8441 23.2812 78.6671C22.9947 78.4066 22.7343 78.1202 22.5052 77.8077C22.2812 77.4952 22.0885 77.1618 21.9322 76.8129C21.7708 76.4587 21.651 76.0941 21.5729 75.7139C21.4947 75.3389 21.4531 74.9535 21.4531 74.5681C21.4531 74.1827 21.4947 73.7973 21.5729 73.4223C21.651 73.0421 21.7708 72.6775 21.9322 72.3233C22.0885 71.9691 22.2812 71.6358 22.5052 71.3233C22.7343 71.0108 22.9947 70.7296 23.2812 70.4691L35.1666 58.5577C36.3854 57.4171 37.8229 56.7868 39.4895 56.6618C41.0468 56.74 42.3489 57.365 43.3906 58.5316C43.6718 58.7868 43.927 59.0681 44.151 59.3806C44.3802 59.6879 44.5677 60.016 44.7239 60.365C44.8854 60.7139 45.0052 61.0785 45.0833 61.4535C45.1666 61.8233 45.2083 62.2035 45.2135 62.5837C45.2187 62.9691 45.1822 63.3493 45.1093 63.7243C45.0312 64.0993 44.9218 64.4587 44.7708 64.8129C44.6197 65.1671 44.4322 65.5004 44.2135 65.8129C43.9947 66.1254 43.7447 66.4118 43.4687 66.6723L31.4739 78.6671ZM39.0937 92.4483C37.526 92.3806 36.2239 91.7556 35.1927 90.5785C34.9062 90.3181 34.6562 90.0316 34.427 89.7191C34.2031 89.4014 34.0156 89.0733 33.8593 88.7191C33.7031 88.365 33.5885 88.0004 33.5104 87.6254C33.4322 87.2452 33.3906 86.865 33.3906 86.4796C33.3906 86.0941 33.4322 85.7139 33.5104 85.3337C33.5885 84.9587 33.7031 84.5941 33.8593 84.24C34.0156 83.891 34.2031 83.5577 34.427 83.24C34.6562 82.9275 34.9062 82.641 35.1927 82.3806L47.1302 70.4691C48.3333 69.3598 49.7447 68.7348 51.375 68.5993C52.9322 68.6671 54.2239 69.2921 55.25 70.4691C55.5312 70.7296 55.7916 71.016 56.0156 71.3285C56.2395 71.641 56.4322 71.9743 56.5885 72.3285C56.7447 72.6775 56.8645 73.0473 56.9427 73.4223C57.0208 73.8025 57.0625 74.1827 57.0625 74.5681C57.0625 74.9535 57.0208 75.3337 56.9427 75.7139C56.8645 76.0889 56.7447 76.4535 56.5885 76.8077C56.4322 77.1618 56.2395 77.4952 56.0156 77.8077C55.7916 78.1202 55.5312 78.4066 55.25 78.6671L43.4687 90.5785C42.2239 91.7087 40.7656 92.3337 39.0937 92.4483ZM55.3281 102.49C54.1041 103.62 52.6666 104.256 51.0052 104.386C49.4427 104.308 48.151 103.677 47.1302 102.49C46.8437 102.23 46.5885 101.943 46.3645 101.631C46.1354 101.318 45.9479 100.985 45.7916 100.631C45.6354 100.282 45.5156 99.9171 45.4375 99.5368C45.3541 99.1618 45.3177 98.7764 45.3177 98.391C45.3177 98.0056 45.3541 97.6254 45.4375 97.2452C45.5156 96.8702 45.6354 96.5056 45.7916 96.1514C45.9479 95.7973 46.1354 95.4639 46.3645 95.1514C46.5885 94.8389 46.8437 94.5525 47.1302 94.2921L59.0416 82.4848C60.2552 81.3546 61.6875 80.7296 63.3385 80.615C64.8854 80.6931 66.1718 81.3181 67.1875 82.4848C67.4739 82.7452 67.7291 83.0316 67.9531 83.3441C68.177 83.6566 68.3697 83.99 68.526 84.3441C68.6822 84.6983 68.802 85.0629 68.8802 85.4379C68.9635 85.8181 69 86.1983 69 86.5837C69 86.9691 68.9635 87.3546 68.8802 87.7296C68.802 88.1098 68.6822 88.4743 68.526 88.8285C68.3697 89.1775 68.177 89.5108 67.9531 89.8233C67.7291 90.1358 67.4739 90.4223 67.1875 90.6827L55.3281 102.49ZM67.1875 114.401C65.9583 115.547 64.5104 116.177 62.8385 116.297C61.2812 116.23 59.9895 115.605 58.9635 114.427C58.677 114.167 58.4218 113.881 58.1979 113.568C57.9687 113.256 57.7812 112.922 57.625 112.573C57.4687 112.219 57.3489 111.855 57.2708 111.474C57.1875 111.099 57.151 110.714 57.151 110.329C57.151 109.943 57.1875 109.563 57.2708 109.183C57.3489 108.808 57.4687 108.443 57.625 108.089C57.7812 107.735 57.9687 107.401 58.1979 107.089C58.4218 106.776 58.677 106.49 58.9635 106.235L70.875 94.2921C72.0885 93.1671 73.5208 92.5473 75.1718 92.4223C76.7239 92.5056 78.0156 93.1306 79.0468 94.2921C79.7812 94.9223 80.3073 95.6931 80.6198 96.6098C80.9323 97.5264 80.9843 98.4587 80.7864 99.4066C80.7239 99.5525 80.6823 99.6983 80.651 99.8546C80.3229 100.855 79.7864 101.735 79.0468 102.49L67.1875 114.401ZM85.6354 114.401C85.375 114.688 85.0885 114.948 84.776 115.172C84.4635 115.401 84.1302 115.594 83.7812 115.75C83.427 115.912 83.0625 116.026 82.6823 116.11C82.3073 116.188 81.9218 116.23 81.5364 116.23C81.151 116.23 80.7656 116.188 80.3906 116.11C80.0104 116.026 79.6458 115.912 79.2916 115.75C78.9375 115.594 78.6041 115.401 78.2916 115.172C77.9791 114.948 77.6979 114.688 77.4375 114.401L75.9895 112.954L83 106.204C83.4531 105.756 83.8541 105.261 84.2083 104.73L85.7916 106.313C86.0729 106.579 86.3281 106.87 86.5468 107.188C86.7708 107.506 86.9583 107.839 87.1093 108.198C87.2604 108.558 87.3698 108.922 87.4427 109.308C87.5156 109.688 87.552 110.068 87.5416 110.459C87.5364 110.844 87.4895 111.23 87.401 111.605C87.3125 111.985 87.1875 112.349 87.0208 112.698C86.8593 113.047 86.6562 113.381 86.4218 113.688C86.1927 114 85.927 114.282 85.6354 114.532V114.401ZM121.448 78.7712C121.193 79.0577 120.906 79.3181 120.594 79.5421C120.281 79.7712 119.948 79.9639 119.594 80.1202C119.24 80.2764 118.875 80.3962 118.5 80.4796C118.12 80.5577 117.74 80.5993 117.349 80.5993C116.964 80.5993 116.583 80.5577 116.203 80.4796C115.828 80.3962 115.458 80.2764 115.109 80.1202C114.755 79.9639 114.422 79.7712 114.109 79.5421C113.797 79.3181 113.51 79.0577 113.255 78.7712L104.214 69.7296C103.969 69.4848 103.682 69.2921 103.359 69.1566C103.036 69.0264 102.703 68.9587 102.354 68.9535C102.005 68.9535 101.667 69.0212 101.344 69.1514C101.021 69.2868 100.734 69.4743 100.484 69.7191C100.24 69.9691 100.047 70.2504 99.9114 70.5733C99.776 70.8962 99.7083 71.2296 99.7083 71.5785C99.7083 71.9327 99.7708 72.266 99.9062 72.5889C100.036 72.9118 100.224 73.1983 100.474 73.4483L109.51 82.4848C109.833 82.74 110.13 83.0212 110.391 83.3337C110.656 83.6462 110.885 83.9796 111.078 84.3441C111.271 84.7035 111.422 85.0785 111.536 85.4743C111.646 85.8702 111.719 86.266 111.745 86.6775C111.771 87.0837 111.755 87.49 111.698 87.8962C111.641 88.3025 111.542 88.6983 111.401 89.0785C111.255 89.4639 111.078 89.8285 110.859 90.1723C110.641 90.5212 110.385 90.8389 110.099 91.1306C109.812 91.4223 109.5 91.6827 109.156 91.9066C108.818 92.1306 108.453 92.3181 108.073 92.4691C107.693 92.6202 107.302 92.7243 106.896 92.7921C106.495 92.8598 106.089 92.8806 105.677 92.8598C105.271 92.8441 104.87 92.7816 104.474 92.6723C104.078 92.5681 103.698 92.4223 103.333 92.24C102.969 92.0525 102.625 91.8337 102.307 91.5733C101.99 91.3181 101.703 91.0264 101.448 90.7087L92.3802 81.6462C92.1354 81.3962 91.8489 81.2087 91.526 81.0785C91.2083 80.9431 90.8698 80.8754 90.5208 80.8754C90.177 80.8754 89.8385 80.9431 89.5156 81.0785C89.1979 81.2087 88.9114 81.3962 88.6666 81.6462C88.151 82.1618 87.8958 82.7868 87.901 83.516C87.8958 84.2452 88.151 84.8702 88.6666 85.3858L97.7291 94.4275C97.9895 94.6983 98.2135 94.99 98.4166 95.3077C98.6145 95.6202 98.7812 95.9535 98.9166 96.3025C99.052 96.6514 99.1562 97.0108 99.2187 97.3754C99.2864 97.7452 99.3177 98.115 99.3125 98.49C99.3073 98.865 99.2656 99.2348 99.1875 99.5993C99.1145 99.9639 99 100.318 98.8541 100.662C98.7083 101.006 98.5312 101.334 98.3229 101.646C98.1145 101.954 97.8802 102.24 97.6145 102.506C97.3489 102.771 97.0625 103.006 96.7552 103.214C96.4427 103.422 96.1145 103.599 95.7708 103.745C95.427 103.891 95.0729 104.006 94.7083 104.079C94.3437 104.157 93.9739 104.198 93.5989 104.204C93.2239 104.209 92.8541 104.177 92.4843 104.115C92.1198 104.047 91.7604 103.943 91.4114 103.808C91.0625 103.672 90.7291 103.506 90.4166 103.308C90.0989 103.105 89.8073 102.881 89.5364 102.62L86.3177 99.4066C86.4895 97.7556 86.2864 96.1514 85.7031 94.5993C85.1145 93.0473 84.2187 91.7035 83 90.5785C82.0208 89.5056 80.8698 88.6723 79.5416 88.0785C78.2187 87.4848 76.8333 87.1723 75.3802 87.1514H74.4323C74.552 85.5473 74.3177 83.9952 73.7239 82.4952C73.1354 81.0004 72.2447 79.7035 71.0625 78.615C70.0833 77.5473 68.9375 76.7139 67.6197 76.1202C66.2968 75.5212 64.9166 75.2139 63.4687 75.1879H62.5208C62.625 73.5785 62.3697 72.0264 61.7604 70.5316C61.151 69.0368 60.2447 67.7504 59.0416 66.6723C58.052 65.6098 56.8854 64.7868 55.552 64.2087C54.2239 63.6254 52.8281 63.3337 51.375 63.3285C51.0468 63.3025 50.7239 63.3025 50.401 63.3285C50.526 61.7191 50.2968 60.1618 49.7083 58.6618C49.1197 57.1566 48.2343 55.8598 47.052 54.7608C46.0729 53.6931 44.9218 52.8598 43.5989 52.2608C42.276 51.6671 40.8854 51.3598 39.4375 51.3389C37.9322 51.3962 36.4843 51.7191 35.0989 52.3129C33.7187 52.9014 32.4791 53.7191 31.3958 54.7608L22.3854 64.0368C19.8489 60.1098 17.9062 55.9014 16.5625 51.4223C15.2187 46.9431 14.5208 42.365 14.4791 37.6827C14.4791 36.5525 16.5052 9.80247 45.0729 7.06288C58.25 6.45351 65.026 9.98476 68.5572 12.4639L50.7395 29.6983C50.2083 30.2035 49.7291 30.7556 49.3072 31.3546C48.8906 31.9535 48.5312 32.5889 48.2395 33.266C47.9531 33.9379 47.7343 34.6306 47.5833 35.3493C47.4375 36.0681 47.3593 36.7921 47.3593 37.5264C47.3593 38.2608 47.4375 38.9848 47.5833 39.7035C47.7343 40.4223 47.9531 41.115 48.2395 41.7921C48.5312 42.4639 48.8906 43.0993 49.3072 43.6983C49.7291 44.3025 50.2083 44.8493 50.7395 45.3546C51.2447 45.8858 51.7968 46.365 52.3958 46.7868C52.9947 47.2087 53.6302 47.5629 54.3072 47.8546C54.9791 48.1462 55.6718 48.365 56.3906 48.5108C57.1093 48.6618 57.8333 48.7348 58.5677 48.7348C59.302 48.7348 60.026 48.6618 60.7447 48.5108C61.4635 48.365 62.1562 48.1462 62.8333 47.8546C63.5052 47.5629 64.1406 47.2087 64.7395 46.7868C65.3437 46.365 65.8906 45.8858 66.3958 45.3546L83.6562 28.1202L121.448 70.8129C121.719 71.0681 121.953 71.3546 122.167 71.6566C122.375 71.9639 122.552 72.2868 122.698 72.6306C122.844 72.9743 122.953 73.3233 123.026 73.6879C123.099 74.0525 123.135 74.4223 123.135 74.7921C123.135 75.1618 123.099 75.5316 123.026 75.8962C122.953 76.2608 122.844 76.6098 122.698 76.9535C122.552 77.2973 122.375 77.6202 122.167 77.9275C121.953 78.2296 121.719 78.5108 121.448 78.7712Z" fill="#366F43"/>
</g>
<path d="M9.1 157.355C8.596 157.355 8.18533 157.234 7.868 156.991C7.56933 156.748 7.32667 156.366 7.14 155.843L1.288 139.295C1.08267 138.698 1.12 138.194 1.4 137.783C1.69867 137.372 2.19333 137.167 2.884 137.167C3.388 137.167 3.78 137.288 4.06 137.531C4.34 137.755 4.564 138.119 4.732 138.623L9.772 153.575H8.652L13.916 138.651C14.1027 138.147 14.336 137.774 14.616 137.531C14.896 137.288 15.26 137.167 15.708 137.167C16.156 137.167 16.5107 137.288 16.772 137.531C17.0333 137.774 17.2573 138.156 17.444 138.679L22.54 153.575H21.56L26.684 138.623C26.852 138.138 27.076 137.774 27.356 137.531C27.636 137.288 28.0187 137.167 28.504 137.167C29.1013 137.167 29.54 137.372 29.82 137.783C30.1 138.194 30.1373 138.698 29.932 139.295L24.024 155.871C23.8373 156.375 23.5947 156.748 23.296 156.991C22.9973 157.234 22.596 157.355 22.092 157.355C21.588 157.355 21.1867 157.234 20.888 156.991C20.5893 156.748 20.3467 156.366 20.16 155.843L15.288 141.955H15.932L11.004 155.871C10.8173 156.375 10.5747 156.748 10.276 156.991C9.996 157.234 9.604 157.355 9.1 157.355ZM37.4719 157.131C36.8559 157.131 36.3799 156.972 36.0439 156.655C35.7265 156.319 35.5679 155.843 35.5679 155.227V139.295C35.5679 138.679 35.7265 138.212 36.0439 137.895C36.3799 137.559 36.8559 137.391 37.4719 137.391H47.4679C47.9345 137.391 48.2892 137.512 48.5319 137.755C48.7932 137.998 48.9239 138.343 48.9239 138.791C48.9239 139.258 48.7932 139.622 48.5319 139.883C48.2892 140.126 47.9345 140.247 47.4679 140.247H39.0119V145.679H46.8519C47.3372 145.679 47.7012 145.8 47.9439 146.043C48.1865 146.286 48.3079 146.64 48.3079 147.107C48.3079 147.574 48.1865 147.928 47.9439 148.171C47.7012 148.414 47.3372 148.535 46.8519 148.535H39.0119V154.275H47.4679C47.9345 154.275 48.2892 154.396 48.5319 154.639C48.7932 154.882 48.9239 155.236 48.9239 155.703C48.9239 156.17 48.7932 156.524 48.5319 156.767C48.2892 157.01 47.9345 157.131 47.4679 157.131H37.4719ZM73.5405 157.411C71.4871 157.411 69.7231 157 68.2485 156.179C66.7925 155.339 65.6725 154.163 64.8885 152.651C64.1045 151.12 63.7125 149.319 63.7125 147.247C63.7125 145.698 63.9365 144.307 64.3845 143.075C64.8325 141.824 65.4765 140.76 66.3165 139.883C67.1565 138.987 68.1831 138.306 69.3965 137.839C70.6285 137.354 72.0098 137.111 73.5405 137.111C74.5671 137.111 75.5751 137.242 76.5645 137.503C77.5538 137.764 78.4218 138.138 79.1685 138.623C79.5605 138.866 79.8218 139.164 79.9525 139.519C80.0831 139.855 80.1111 140.191 80.0365 140.527C79.9618 140.844 79.8031 141.115 79.5605 141.339C79.3365 141.563 79.0471 141.694 78.6925 141.731C78.3565 141.75 77.9831 141.628 77.5725 141.367C76.9938 140.994 76.3685 140.723 75.6965 140.555C75.0245 140.387 74.3431 140.303 73.6525 140.303C72.3271 140.303 71.2071 140.574 70.2925 141.115C69.3778 141.656 68.6871 142.44 68.2205 143.467C67.7538 144.494 67.5205 145.754 67.5205 147.247C67.5205 148.722 67.7538 149.982 68.2205 151.027C68.6871 152.072 69.3778 152.866 70.2925 153.407C71.2071 153.948 72.3271 154.219 73.6525 154.219C74.3618 154.219 75.0618 154.135 75.7525 153.967C76.4431 153.78 77.0965 153.5 77.7125 153.127C78.1231 152.884 78.4871 152.782 78.8045 152.819C79.1405 152.838 79.4205 152.95 79.6445 153.155C79.8685 153.36 80.0178 153.622 80.0925 153.939C80.1671 154.238 80.1485 154.555 80.0365 154.891C79.9245 155.208 79.7005 155.488 79.3645 155.731C78.6178 156.272 77.7218 156.692 76.6765 156.991C75.6498 157.271 74.6045 157.411 73.5405 157.411ZM85.4136 157.355C84.9656 157.355 84.6016 157.252 84.3216 157.047C84.0602 156.842 83.9016 156.571 83.8456 156.235C83.7896 155.88 83.8549 155.488 84.0416 155.059L91.4336 138.679C91.6762 138.138 91.9656 137.755 92.3016 137.531C92.6562 137.288 93.0576 137.167 93.5056 137.167C93.9349 137.167 94.3176 137.288 94.6536 137.531C95.0082 137.755 95.3069 138.138 95.5496 138.679L102.97 155.059C103.175 155.488 103.25 155.88 103.194 156.235C103.138 156.59 102.979 156.87 102.718 157.075C102.456 157.262 102.111 157.355 101.682 157.355C101.159 157.355 100.748 157.234 100.45 156.991C100.17 156.73 99.9176 156.338 99.6936 155.815L97.8736 151.587L99.3856 152.567H87.5696L89.0816 151.587L87.2896 155.815C87.0469 156.356 86.7949 156.748 86.5336 156.991C86.2722 157.234 85.8989 157.355 85.4136 157.355ZM93.4496 141.283L89.5296 150.607L88.8016 149.711H98.1536L97.4536 150.607L93.5056 141.283H93.4496ZM110.085 157.355C109.507 157.355 109.059 157.196 108.741 156.879C108.443 156.543 108.293 156.086 108.293 155.507V139.211C108.293 138.614 108.452 138.166 108.769 137.867C109.087 137.55 109.535 137.391 110.113 137.391H116.861C119.027 137.391 120.697 137.914 121.873 138.959C123.049 139.986 123.637 141.432 123.637 143.299C123.637 144.512 123.367 145.558 122.825 146.435C122.303 147.312 121.537 147.984 120.529 148.451C119.521 148.918 118.299 149.151 116.861 149.151L117.113 148.731H118.037C118.803 148.731 119.465 148.918 120.025 149.291C120.604 149.664 121.108 150.252 121.537 151.055L123.637 154.947C123.861 155.339 123.964 155.722 123.945 156.095C123.927 156.468 123.787 156.776 123.525 157.019C123.264 157.243 122.881 157.355 122.377 157.355C121.873 157.355 121.463 157.252 121.145 157.047C120.828 156.823 120.548 156.487 120.305 156.039L117.477 150.831C117.141 150.196 116.74 149.776 116.273 149.571C115.825 149.347 115.247 149.235 114.537 149.235H111.877V155.507C111.877 156.086 111.728 156.543 111.429 156.879C111.131 157.196 110.683 157.355 110.085 157.355ZM111.877 146.575H116.245C117.533 146.575 118.504 146.314 119.157 145.791C119.829 145.25 120.165 144.447 120.165 143.383C120.165 142.338 119.829 141.554 119.157 141.031C118.504 140.49 117.533 140.219 116.245 140.219H111.877V146.575ZM131.633 157.131C131.017 157.131 130.541 156.972 130.205 156.655C129.887 156.319 129.729 155.843 129.729 155.227V139.295C129.729 138.679 129.887 138.212 130.205 137.895C130.541 137.559 131.017 137.391 131.633 137.391H141.629C142.095 137.391 142.45 137.512 142.693 137.755C142.954 137.998 143.085 138.343 143.085 138.791C143.085 139.258 142.954 139.622 142.693 139.883C142.45 140.126 142.095 140.247 141.629 140.247H133.173V145.679H141.013C141.498 145.679 141.862 145.8 142.105 146.043C142.347 146.286 142.469 146.64 142.469 147.107C142.469 147.574 142.347 147.928 142.105 148.171C141.862 148.414 141.498 148.535 141.013 148.535H133.173V154.275H141.629C142.095 154.275 142.45 154.396 142.693 154.639C142.954 154.882 143.085 155.236 143.085 155.703C143.085 156.17 142.954 156.524 142.693 156.767C142.45 157.01 142.095 157.131 141.629 157.131H131.633Z" fill="#366F43"/>
</svg>
