<svg width="30" height="31" viewBox="0 0 30 31" fill="none" xmlns="http://www.w3.org/2000/svg">
<path d="M6.03333 13.2807C8.43333 17.9974 12.3 21.8474 17.0167 24.264L20.6833 20.5974C21.1333 20.1474 21.8 19.9974 22.3833 20.1974C24.25 20.814 26.2667 21.1474 28.3333 21.1474C29.25 21.1474 30 21.8974 30 22.814V28.6307C30 29.5474 29.25 30.2974 28.3333 30.2974C12.6833 30.2974 0 17.614 0 1.96403C0 1.04736 0.75 0.297363 1.66667 0.297363H7.5C8.41667 0.297363 9.16667 1.04736 9.16667 1.96403C9.16667 4.04736 9.5 6.04736 10.1167 7.91403C10.3 8.49736 10.1667 9.14736 9.7 9.61403L6.03333 13.2807Z" fill="#366F43"/>
</svg>
