<svg width="582" height="583" viewBox="0 0 582 583" fill="none" xmlns="http://www.w3.org/2000/svg">
<path d="M291 0.682129C355.584 0.68213 418.334 22.1672 469.364 61.7532C520.394 101.339 556.805 156.776 572.863 219.333C588.92 281.889 583.71 348.01 558.055 407.28C532.399 466.55 487.755 515.601 431.155 546.707L364.627 425.653C394.361 409.312 417.813 383.545 431.291 352.409C444.768 321.273 447.505 286.538 439.07 253.675C430.635 220.813 411.507 191.69 384.699 170.894C357.892 150.099 324.928 138.812 291 138.812V0.682129Z" fill="#BEF3C0"/>
<path d="M431.179 546.693C380.743 574.418 323.218 586.564 265.878 581.596C208.539 576.627 153.96 554.767 109.045 518.78C64.1291 482.792 30.8936 434.294 13.5411 379.418C-3.81139 324.542 -4.50151 265.752 11.558 210.484L144.202 249.027C135.765 278.06 136.128 308.944 145.244 337.772C154.359 366.6 171.819 392.077 195.414 410.982C219.009 429.888 247.681 441.371 277.803 443.981C307.925 446.591 338.144 440.211 364.64 425.646L431.179 546.693Z" fill="#AC94F1"/>
<path d="M11.3889 211.068C26.8151 157.562 57.2693 109.606 99.1368 72.8911L190.209 176.745C168.215 196.033 152.217 221.225 144.113 249.333L11.3889 211.068Z" fill="#FFF0CA"/>
<path d="M97.6391 74.2136C137.62 38.6643 186.628 14.8251 239.277 5.31578L263.828 141.246C236.171 146.242 210.426 158.765 189.422 177.44L97.6391 74.2136Z" fill="#F9CF64"/>
<path d="M237.858 5.5757C257.556 1.91686 277.58 0.302129 297.61 0.757203L294.472 138.852C283.95 138.613 273.431 139.461 263.083 141.383L237.858 5.5757Z" fill="#F38FBF"/>
</svg>
